<?xml version="1.0" encoding="utf-8"?>
<!-- Generator: Adobe Illustrator 25.2.3, SVG Export Plug-In . SVG Version: 6.00 Build 0)  -->
<svg version="1.1" id="Layer_1" xmlns="http://www.w3.org/2000/svg" xmlns:xlink="http://www.w3.org/1999/xlink" x="0px" y="0px"
	 viewBox="0 0 792 236.15" style="enable-background:new 0 0 792 236.15;" xml:space="preserve">
<style type="text/css">
	.st0{fill:#439098;}
	.st1{fill:#222632;}
</style>
<polygon class="st0" points="126.89,71.62 112.66,71.62 39.08,176.9 53.31,176.9 "/>
<polygon class="st0" points="126.62,71.62 112.39,71.62 38.81,176.9 53.04,176.9 "/>
<path class="st1" d="M74.29,115.57L43.9,71.01h13.21l23.09,35.9L74.29,115.57z M94.75,128.08l35.47,46.86H117l-28.02-38.07
	L94.75,128.08z"/>
<path class="st1" d="M234.74,158.5c-1.89,2.64-4.17,5.14-6.84,7.49c-2.67,2.35-5.77,4.43-9.28,6.22c-3.51,1.79-7.39,3.21-11.64,4.25
	c-4.25,1.04-8.89,1.56-13.92,1.56c-8.39,0-16.15-1.37-23.28-4.11c-7.13-2.74-13.27-6.53-18.41-11.38
	c-5.14-4.84-9.15-10.59-12.03-17.25c-2.89-6.65-4.33-13.95-4.33-21.87c0-7.93,1.47-15.22,4.41-21.87c2.93-6.65,7-12.4,12.19-17.25
	c5.19-4.84,11.33-8.64,18.41-11.38c7.08-2.74,14.76-4.11,23.05-4.11c4.09,0,8.1,0.4,12.03,1.19c3.93,0.8,7.63,1.92,11.09,3.36
	c3.46,1.44,6.61,3.17,9.44,5.19c2.83,2.02,5.19,4.3,7.08,6.85l-9.44,6.46c-1.16-1.66-2.7-3.33-4.64-4.99
	c-1.94-1.66-4.22-3.13-6.84-4.4c-2.62-1.27-5.48-2.3-8.57-3.08c-3.1-0.78-6.43-1.17-9.99-1.17c-7.24,0-13.71,1.22-19.43,3.66
	c-5.72,2.44-10.57,5.73-14.55,9.88c-3.99,4.15-7.03,8.95-9.12,14.41c-2.1,5.46-3.15,11.22-3.15,17.27c0,6.05,1.07,11.8,3.22,17.27
	c2.15,5.46,5.22,10.27,9.2,14.41c3.98,4.15,8.83,7.44,14.55,9.88c5.71,2.44,12.14,3.66,19.27,3.66c6.4,0,12.48-1.22,18.25-3.67
	c5.77-2.45,10.59-6.36,14.47-11.74L234.74,158.5z"/>
<path class="st1" d="M267.03,165.99h55.64v9.39h-66.21V71.45h64.45v9.4h-53.88v35.67h50.35v9.4h-50.35V165.99z"/>
<path class="st1" d="M421.47,159.97h0.29V71.45h10.57v103.94h-13.21l-60.48-89.4h-0.29v89.4h-10.57V71.45h13.21L421.47,159.97z"/>
<path class="st1" d="M495.46,175.38h-10.57V80.84h-34.79v-9.4h80.15v9.4h-34.79V175.38z"/>
<path class="st1" d="M559.46,175.38h-10.57V71.45h10.57V175.38z"/>
<path class="st1" d="M737.7,71.45l-34.79,64.01h-0.15l-35.23-64.01h-5.53h-10.57h-0.04v61.88h0.04v2.13c0,4.21-0.49,8.29-1.47,12.26
	c-0.98,3.96-2.57,7.49-4.77,10.57c-2.2,3.08-5.11,5.58-8.73,7.49c-3.62,1.91-8.07,2.86-13.36,2.86c-5.29,0-9.74-0.96-13.36-2.86
	c-3.62-1.91-6.53-4.4-8.73-7.49c-2.2-3.08-3.79-6.61-4.77-10.57c-0.98-3.96-1.47-8.05-1.47-12.26V71.45h-10.57v65.18
	c0,4.31,0.56,8.88,1.69,13.73c1.12,4.84,3.16,9.32,6.09,13.43c2.94,4.11,6.9,7.51,11.89,10.2c4.99,2.69,11.4,4.04,19.23,4.04
	c7.73,0,14.12-1.35,19.16-4.04c5.04-2.69,9.03-6.09,11.96-10.2c2.94-4.11,4.97-8.59,6.09-13.43c1.12-4.84,1.69-9.42,1.69-13.73V85.1
	h0.25l37.58,68.27h5.58l37.58-68.27h0.29v90.28h10.57V71.45H737.7z"/>
</svg>
